<svg _ngcontent-ng-c574811960="" xmlns="http://www.w3.org/2000/svg" height="50" viewBox="0 0 923 493" fill="none" class="ng-star-inserted"><path _ngcontent-ng-c574811960="" d="M340 0C339.8 1.4 338.94 2.40999 338.04 3.39999C320.18 23.02 310.28 46.65 303.63 71.9C303.03 74.18 302.76 76.48 304.05 78.69C312.13 92.51 320.35 106.25 332.1 117.39C336.1 121.18 340.49 124.5 345.78 126.39C355.39 129.82 364.09 127.18 369.97 118.81C376.12 110.06 378.25 99.97 378.85 89.55C379.22 83.17 378.92 76.75 378.92 69.03C382.71 72.58 384.05 76 385.78 79.08C392.86 91.74 399.66 104.54 403.8 118.54C406.13 126.41 407.58 134.33 406.37 142.66C405.3 150.05 401.87 156.12 396.57 162.28C401.67 161.53 405.22 159.33 408.58 156.82C413.69 153 419.34 151.93 425.58 152.81C429.09 153.3 432.05 154.67 434.07 157.5C436.79 161.29 439.73 164.76 444.1 166.61C443.42 168.52 441.89 168.51 440.72 168.93C425.99 174.19 413.99 183 405.27 196.09C397.41 207.89 386.64 214.93 372.34 216.04C369.95 216.23 368.28 217.26 366.86 219.03C349.56 240.55 320.12 240.9 299.71 227.06C286.53 218.13 277.19 205.92 269.58 192.26C258.45 172.27 251.36 150.86 248.08 128.21C247.77 126.09 247.44 123.93 248.16 121.78C249.88 121.42 249.99 122.91 250.49 123.78C254.26 130.31 258.95 136.14 263.86 141.82C265.85 144.12 268.26 145.81 271.03 147.11C279.66 151.19 288.94 152 298.25 152.74C301.55 153 302.75 152.05 301.92 148.48C298.47 133.7 296.23 118.74 295.77 103.53C295.64 99.3 294.18 95.46 292.19 91.7C282.33 73.1 275.09 53.73 275.85 32.21C275.96 29.23 276.44 26.25 276.82 23.28C277.18 20.55 278.25 19.52 280.56 21.89C287.08 28.58 294.65 28.54 302.65 25.22C316.58 19.43 327.78 9.68999 339 -0.0100098H340V0Z" fill="white"></path><path _ngcontent-ng-c574811960="" d="M923 478C916.18 478.11 909.35 478.3 902.53 478.31C880.87 478.35 859.2 478.25 837.54 478.39C833.46 478.42 831.93 477.07 831.93 472.95C832.01 422.29 832.01 371.64 831.93 320.98C831.93 316.78 833.6 315.37 837.61 315.63C841.26 315.87 844.96 315.9 848.6 315.63C852.9 315.3 854.77 316.78 854.38 321.27C854.08 324.74 854.32 328.26 854.32 331.76C854.32 372.09 854.32 412.41 854.32 452.74C854.32 457.407 856.72 459.747 861.52 459.76C882.01 459.84 902.5 459.93 922.99 460.02V478.02L923 478Z" fill="white"></path><path _ngcontent-ng-c574811960="" d="M117.02 194.92C91.93 210.28 65.9 223.76 44.72 244.22C29.15 259.27 20.86 278.2 18.3 299.53C14.33 332.6 19.05 364.51 34 394.32C52.83 431.87 83.36 455.61 123.69 466.87C128.18 468.12 132.76 469.05 137.32 469.98C143.09 471.16 144.85 473.93 143.26 479.67C142.45 482.6 140.99 485.2 139.32 487.71C136.42 492.09 132.65 493.63 127.33 492.64C63.05 480.68 15.49 433.61 4.01998 369.24C-2.00002 335.47 -1.12 301.86 11.64 269.37C20.02 248.04 35.34 232.21 52.75 218.1C72.5 202.09 94.6 189.61 116.05 176.16C119.88 173.76 121.25 171.11 120.85 166.8C119.74 154.98 116.66 143.93 109.7 134.09C104.53 126.79 108.09 115.22 116.38 111.4C119.78 109.83 122.01 111.21 124.05 113.93C135.18 128.8 139.17 145.65 137.56 163.87C137.19 167.99 137.94 170.79 141 173.5C163.24 193.21 188.05 208.97 214.83 221.7C258.21 242.32 304.32 252.88 351.67 259.01C384.22 263.22 416.84 266.04 449.66 267.3C475.34 268.29 500.94 267.45 526.57 266.89C534.87 266.71 536.64 269.35 533.39 277.15C530.5 284.1 526.6 289.28 517.78 289.5C494.32 290.07 470.89 291.82 447.4 290.36C436.77 289.7 426.11 289.88 415.45 289.22C357.26 285.63 299.62 278.41 243.97 260.3C206.93 248.25 173.24 229.34 142.58 205.2C139.83 203.04 136.98 201 134.26 198.81C132.04 197.02 130.73 197.57 129.9 200.17C120.63 229.49 106.7 257.4 103.56 288.56C98.8 335.82 105.7 380.29 134.73 419.47C138.69 424.82 143 429.99 148.19 434.2C152.6 437.78 152.83 441.96 151.11 446.73C150.6 448.13 149.89 449.47 149.15 450.77C144.02 459.75 139.91 460.38 132.65 453.13C109.45 429.99 96.22 401.66 89.99 369.87C81.59 326.95 84.68 285.07 101.64 244.4C107.79 229.65 113.2 214.56 116.9 198.95C117.16 197.86 117.88 196.79 116.98 194.93L117.02 194.92Z" fill="white"></path><path _ngcontent-ng-c574811960="" d="M258.05 390.87C264.04 393.5 269.12 395.52 273.51 398.88C299.19 418.5 293.75 459.01 263.67 472.51C252.03 477.74 239.65 479.17 227.17 479.89C215.52 480.56 203.9 479.54 192.27 478.6C187.57 478.22 186.59 476.23 186.6 471.98C186.71 422.49 186.67 372.99 186.67 323.5C186.67 322.83 186.74 322.16 186.69 321.5C186.48 318.82 187.92 317.45 190.37 317.07C210.87 313.88 231.44 312.02 251.85 317.15C264.81 320.4 275.49 327.38 280.93 340.21C288.55 358.19 281.2 378.13 263.81 387.74C262.23 388.62 260.63 389.47 258.05 390.87ZM209.03 431.38C209.03 439.87 209.03 448.36 209.03 456.85C209.03 459.29 209.07 461.67 212.47 461.74C223.44 461.95 234.45 462.94 245.17 459.52C258.92 455.13 266.58 445.13 266.61 431.54C266.64 418.71 258.96 408.86 245.77 404.12C235.43 400.41 224.76 401.41 214.15 401.12C210.18 401.01 208.89 402.6 208.97 406.42C209.14 414.74 209.02 423.07 209.03 431.39V431.38ZM209.03 358.06C209.03 365.05 209.01 372.03 209.03 379.02C209.03 381.21 208.96 383.76 212.08 383.71C222.82 383.54 233.7 385.21 244.14 380.97C256.01 376.16 261.67 367.15 260.8 353.88C260.13 343.66 253.21 336.29 241.46 333.28C231.96 330.85 222.35 331.49 212.73 332.28C209.57 332.54 209.02 334.53 209.03 337.1C209.04 344.09 209.03 351.07 209.03 358.06Z" fill="white"></path><path _ngcontent-ng-c574811960="" d="M679.26 396.98C679.26 421.97 679.13 446.96 679.36 471.95C679.41 477.06 677.78 478.88 672.77 478.39C669.3 478.05 665.76 478.13 662.28 478.37C658.12 478.67 656.75 476.92 656.77 472.86C656.9 454.53 656.82 436.21 656.82 417.88C656.82 414.21 656.68 410.54 656.85 406.89C657.02 403.4 655.55 402.26 652.13 402.28C629.81 402.38 607.48 402.41 585.16 402.26C581.07 402.23 580.08 403.84 580.1 407.58C580.22 428.74 580.16 449.9 580.15 471.06C580.15 478.31 580.12 478.32 573.02 478.33C569.19 478.33 565.36 478.25 561.52 478.33C558.76 478.38 557.56 477.12 557.67 474.41C557.73 473.08 557.65 471.74 557.65 470.41C557.65 421.43 557.65 372.45 557.65 323.46C557.65 318.28 560.317 315.687 565.65 315.68C568.48 315.68 571.34 315.91 574.14 315.63C578.73 315.18 580.26 317.04 580.21 321.6C580.02 338.93 580.12 356.25 580.15 373.58C580.17 383.64 579.25 382.83 589.2 382.84C609.69 382.86 630.19 382.71 650.68 382.94C655.52 382.99 656.97 381.43 656.91 376.66C656.68 358.34 656.91 340.01 656.75 321.68C656.71 317.23 658.03 315.17 662.74 315.63C665.88 315.93 669.07 315.68 672.23 315.69C679.21 315.71 679.24 315.71 679.24 322.52C679.25 347.34 679.24 372.17 679.24 396.99L679.26 396.98Z" fill="white"></path><path _ngcontent-ng-c574811960="" d="M315.98 396.91C315.98 372.08 315.97 347.26 315.98 322.43C315.98 315.79 316.11 315.68 322.65 315.68C348.14 315.67 373.64 315.79 399.13 315.58C404.01 315.54 405.46 317.19 405.33 321.91C404.93 336.19 406.96 334.14 393.2 334.24C377.04 334.35 360.87 334.39 344.71 334.18C340.35 334.12 338.86 335.52 338.93 339.91C339.15 352.74 339.12 365.57 338.94 378.4C338.88 382.52 340.33 383.94 344.45 383.9C361.28 383.74 378.11 384 394.93 383.74C400.05 383.66 401.56 385.4 401.39 390.38C400.9 404.33 403.18 402.18 389.47 402.3C374.48 402.43 359.48 402.44 344.48 402.26C340.39 402.21 338.88 403.48 338.93 407.67C339.11 423.33 339.09 438.99 338.94 454.66C338.9 458.62 340.41 459.84 344.25 459.81C363.74 459.68 383.24 459.88 402.73 459.66C407.55 459.61 409.16 461.2 409.06 465.97C408.76 480.75 410.2 478.23 396.93 478.3C372.1 478.43 347.28 478.21 322.45 478.45C317.37 478.5 315.83 476.88 315.86 471.9C316.05 446.91 315.95 421.91 315.95 396.92L315.98 396.91Z" fill="white"></path><path _ngcontent-ng-c574811960="" d="M713.83 396.83C713.83 372.01 713.82 347.19 713.83 322.38C713.83 315.75 713.91 315.68 720.52 315.68C746 315.67 771.49 315.78 796.97 315.58C801.81 315.54 803.35 317.15 803.23 321.89C802.88 336.28 804.63 334.14 791.08 334.23C774.59 334.34 758.1 334.37 741.61 334.18C737.41 334.13 736.17 335.6 736.24 339.67C736.44 352.49 736.47 365.32 736.23 378.14C736.15 382.47 737.45 383.96 741.89 383.91C758.88 383.7 775.87 383.95 792.86 383.75C797.57 383.69 799.36 385.16 799.24 390.02C798.87 404.54 800.65 402.18 787.07 402.3C771.91 402.43 756.75 402.46 741.6 402.25C737.37 402.19 736.2 403.68 736.25 407.74C736.44 423.23 736.47 438.72 736.23 454.21C736.16 458.7 737.71 459.87 742 459.83C761.32 459.64 780.64 459.91 799.96 459.64C805.08 459.57 806.53 461.26 806.43 466.24C806.19 478.33 806.41 478.34 794.15 478.34C769.67 478.34 745.18 478.34 720.7 478.34C713.88 478.34 713.85 478.31 713.84 471.3C713.83 446.48 713.84 421.66 713.84 396.85L713.83 396.83Z" fill="white"></path><path _ngcontent-ng-c574811960="" d="M491.33 406C491.33 428.15 491.22 450.3 491.42 472.45C491.46 477.05 489.98 478.75 485.42 478.38C481.61 478.08 477.75 478.14 473.94 478.36C470.16 478.58 468.81 476.84 468.99 473.33C469.07 471.84 468.99 470.33 468.99 468.83C468.99 426.36 468.99 383.89 468.99 341.43C468.99 336.697 466.59 334.327 461.79 334.32C449.63 334.32 437.47 334.19 425.32 334.38C421.19 334.45 419.72 332.97 419.8 328.88C420.09 313.07 418.13 315.76 432.52 315.7C466.49 315.56 500.47 315.65 534.44 315.66C541.07 315.66 541.2 315.74 541.16 322.32C541.08 336.39 542.57 334.14 529.27 334.29C519.11 334.4 508.95 334.31 498.79 334.31C493.823 334.31 491.34 336.717 491.34 341.53C491.34 363.01 491.34 384.5 491.34 405.98L491.33 406Z" fill="white"></path><path _ngcontent-ng-c574811960="" d="M821.18 247.52C822.83 246.34 823.37 245.98 823.88 245.58C829.85 240.91 836.41 239.31 843.53 242.38C850.65 245.45 853.44 251.79 853.84 258.87C854.38 268.5 854 278.19 854.11 287.85C854.15 291.7 851.76 292.02 848.81 292.04C845.89 292.06 843.96 291.28 843.98 287.88C844.02 279.55 844.02 271.22 843.95 262.89C843.87 254.22 839.98 249.18 833.48 249.16C826.36 249.15 821.3 254.9 821.21 263.3C821.13 271.13 821.09 278.96 821.22 286.79C821.28 290.23 820.31 292.06 816.47 292.08C812.64 292.09 811.05 290.6 811.06 286.77C811.13 265.95 811.13 245.12 811.06 224.3C811.05 220.53 812.51 218.94 816.4 218.91C820.67 218.88 821.29 221.15 821.23 224.63C821.1 231.9 821.19 239.18 821.19 247.52H821.18Z" fill="white"></path><path _ngcontent-ng-c574811960="" d="M632.1 246.61C634.54 246.52 635.35 245.05 636.56 244.27C647.99 236.83 661.02 241.91 664.11 255.11C664.6 257.2 664.95 259.38 664.98 261.52C665.08 269.84 664.94 278.17 665.06 286.49C665.11 290.06 664.25 292.11 660.09 292.11C656.09 292.11 654.86 290.42 654.92 286.68C655.06 278.53 655.04 270.36 654.92 262.21C654.79 253.98 650.71 249.1 644.29 249.18C637.48 249.27 632.3 254.81 632.16 262.44C632.02 270.6 632.02 278.76 632.15 286.91C632.2 290.42 631.05 292.12 627.28 292.09C623.73 292.06 622.07 290.74 622.07 287.11C622.12 265.97 622.12 244.82 622.08 223.68C622.08 219.86 624.15 218.96 627.52 218.95C631.02 218.95 632.18 220.56 632.14 223.86C632.03 231.43 632.11 239 632.11 246.63L632.1 246.61Z" fill="white"></path><path _ngcontent-ng-c574811960="" d="M597.33 221.83C600.96 221.66 605.2 222.34 609.4 223.55C612.18 224.35 612.63 225.97 611.77 228.48C610.98 230.78 610.49 232.99 607.04 231.78C602.11 230.04 596.94 229.59 591.76 230.41C577.01 232.75 568.18 245.6 570.42 261.31C573 279.35 586.05 287.59 605.14 283.14C608.16 282.44 611.1 281.28 611.82 286.01C612.18 288.38 611.59 290.02 609.26 290.65C595.45 294.42 582.07 294.51 570.67 284.37C559.89 274.79 556.96 257.42 562.98 242.3C568.15 229.32 580.54 221.77 597.32 221.82L597.33 221.83Z" fill="white"></path><path _ngcontent-ng-c574811960="" d="M711.67 285.29C705.53 291.08 699.55 294.02 692.21 292.55C684.87 291.08 680.47 286.43 679.06 279.2C676.87 267.98 678.23 256.62 678.09 245.31C678.04 241.6 681 241.95 683.51 241.89C686.2 241.82 688.09 242.57 688.08 245.74C688.06 253.07 688.08 260.4 688.12 267.73C688.12 269.89 688.04 272.08 688.32 274.22C689.17 280.85 693.46 284.93 698.99 284.56C704.86 284.17 709.85 279.13 709.99 273C710.18 264.34 710.11 255.68 710.07 247.02C710.05 243.56 711.35 241.84 715.08 241.85C718.6 241.85 720.27 242.94 720.22 246.72C720.08 257.54 720.17 268.37 720.19 279.2C720.19 281.2 720.22 283.2 720.28 285.19C720.37 287.98 722.12 291.4 717.16 292.01C712.87 292.53 711.47 290.3 711.68 285.3L711.67 285.29Z" fill="white"></path><path _ngcontent-ng-c574811960="" d="M762.82 267.47C762.81 248.37 779.57 236.16 797.79 241.96C800.43 242.8 802.33 243.7 801.26 247.19C800.25 250.48 798.54 250.58 795.63 249.83C788.84 248.07 782.16 248.46 777.14 253.98C771.93 259.71 771.97 266.87 773.79 273.81C775.73 281.18 783.57 285.66 791.39 284.56C793.2 284.31 795.02 283.98 796.77 283.47C799.15 282.78 800.6 283.29 801.15 285.91C801.66 288.31 801.48 290.09 798.75 291.02C780.11 297.37 762.22 287.38 762.82 267.46V267.47Z" fill="white"></path><path _ngcontent-ng-c574811960="" d="M743.14 248.47C746.85 244.32 749.95 241.54 754.37 241.03C756.69 240.76 758.93 240.99 758.99 244.07C759.04 246.58 759.93 249.37 755.84 250.18C747.57 251.82 744.32 255.84 744.11 264.33C743.93 271.82 743.92 279.33 744.07 286.82C744.15 290.71 742.61 292.13 738.75 292.1C734.93 292.07 733.91 290.28 733.93 286.84C734 274.18 733.84 261.52 733.96 248.86C733.98 246.36 732.45 242.84 736.81 242.01C741.12 241.19 742.98 243.42 743.13 248.49L743.14 248.47Z" fill="white"></path></svg>